<svg width="825" height="23" viewBox="0 0 825 23" fill="none" xmlns="http://www.w3.org/2000/svg">
<path d="M0.536 11.28V8.64L10.472 3.888L11.48 6.048L3.104 9.96L11.48 13.872L10.472 16.032L0.536 11.28ZM20.4406 14.088V5.352C20.4406 2.744 21.7446 1.44 24.3526 1.44H30.8806L32.2966 2.544V4.104H24.4246C23.7206 4.104 23.3686 4.448 23.3686 5.136V14.304C23.3686 14.992 23.7206 15.336 24.4246 15.336H32.2966V16.896L30.8806 18H24.3526C21.7446 18 20.4406 16.696 20.4406 14.088ZM35.204 18V6.96C35.78 5.92 36.884 5.4 38.516 5.4H41.036L42.308 6.336V7.848H39.164C38.62 7.848 38.236 7.984 38.012 8.256V18H35.204ZM47.6075 18C45.0795 18 43.8155 16.752 43.8155 14.256C43.8155 11.76 45.0795 10.512 47.6075 10.512H51.3035V8.952C51.3035 8.216 50.9355 7.848 50.1995 7.848H45.1115V6.336L46.3595 5.4H50.3435C52.8555 5.4 54.1115 6.664 54.1115 9.192V18H47.6075ZM46.6235 14.448C46.6235 15.184 46.9915 15.552 47.7275 15.552H51.3035V12.696H47.7275C46.9915 12.696 46.6235 13.056 46.6235 13.776V14.448ZM57.6125 18V4.032C57.6125 1.504 58.8765 0.24 61.4045 0.24H63.6845L64.9565 1.176V2.688H61.5245C60.7885 2.688 60.4205 3.056 60.4205 3.792V5.4H64.7165V7.848H60.4205V18H57.6125ZM67.1493 14.208V1.44H69.9573V5.4H74.2533V7.848H69.9573V14.448C69.9573 15.184 70.3253 15.552 71.0613 15.552H74.4933V17.064L73.2213 18H70.9413C68.4133 18 67.1493 16.736 67.1493 14.208ZM77.0874 3.216V0.36H80.0394V3.216H77.0874ZM77.1594 18V5.4H79.9674V18H77.1594ZM83.5578 18V5.4H90.4698C92.9818 5.4 94.2378 6.664 94.2378 9.192V18H91.4298V8.952C91.4298 8.216 91.0618 7.848 90.3258 7.848H86.3658V18H83.5578ZM97.4735 14.208V9.192C97.4735 6.664 98.7375 5.4 101.266 5.4H108.178V19.008C108.178 21.536 106.914 22.8 104.386 22.8H99.8015L98.5295 21.864V20.352H104.266C105.002 20.352 105.37 19.984 105.37 19.248V18H101.266C98.7375 18 97.4735 16.736 97.4735 14.208ZM100.282 14.448C100.282 15.184 100.65 15.552 101.386 15.552H105.37V7.848H101.386C100.65 7.848 100.282 8.216 100.282 8.952V14.448ZM117.472 14.088V5.352C117.472 2.744 118.776 1.44 121.384 1.44H127.912L129.328 2.544V4.104H121.456C120.752 4.104 120.4 4.448 120.4 5.136V14.304C120.4 14.992 120.752 15.336 121.456 15.336H129.328V16.896L127.912 18H121.384C118.776 18 117.472 16.696 117.472 14.088ZM132.139 14.208V9.192C132.139 6.664 133.403 5.4 135.931 5.4H139.291C141.803 5.4 143.059 6.664 143.059 9.192V14.208C143.059 16.736 141.803 18 139.291 18H135.931C133.403 18 132.139 16.736 132.139 14.208ZM134.947 14.448C134.947 15.184 135.315 15.552 136.051 15.552H139.147C139.883 15.552 140.251 15.184 140.251 14.448V8.952C140.251 8.216 139.883 7.848 139.147 7.848H136.051C135.315 7.848 134.947 8.216 134.947 8.952V14.448ZM146.272 14.208V9.192C146.272 6.664 147.536 5.4 150.064 5.4H154.144V0.24H156.952V18H150.064C147.536 18 146.272 16.736 146.272 14.208ZM149.08 14.448C149.08 15.184 149.448 15.552 150.184 15.552H154.144V7.848H150.184C149.448 7.848 149.08 8.216 149.08 8.952V14.448ZM160.358 14.208V9.192C160.358 6.664 161.622 5.4 164.15 5.4H167.27C169.782 5.4 171.038 6.664 171.038 9.192V12.744H163.166V14.448C163.166 15.184 163.534 15.552 164.27 15.552H170.558V17.064L169.286 18H164.15C161.622 18 160.358 16.736 160.358 14.208ZM163.166 10.56H168.23V8.952C168.23 8.216 167.862 7.848 167.126 7.848H164.27C163.534 7.848 163.166 8.216 163.166 8.952V10.56ZM173.272 21L174.664 14.88H177.376L177.664 15.336L175.36 21.504L173.272 21ZM186.97 18V1.44H194.698C197.306 1.44 198.61 2.744 198.61 5.352V6.864C198.61 7.408 198.45 7.872 198.13 8.256L197.29 9.264L198.298 10.104C198.826 10.536 199.09 11.176 199.09 12.024V14.088C199.09 16.696 197.786 18 195.178 18H186.97ZM189.898 15.336H195.106C195.81 15.336 196.162 14.992 196.162 14.304V11.784C196.162 11.096 195.81 10.752 195.106 10.752H189.898V15.336ZM189.898 8.088H194.626C195.33 8.088 195.682 7.736 195.682 7.032V5.136C195.682 4.448 195.33 4.104 194.626 4.104H189.898V8.088ZM202.22 14.208V5.4H205.028V14.448C205.028 15.184 205.396 15.552 206.132 15.552H210.092V5.4H212.9V18H206.012C203.484 18 202.22 16.736 202.22 14.208ZM216.423 3.216V0.36H219.375V3.216H216.423ZM216.495 18V5.4H219.303V18H216.495ZM222.798 13.824V0.24H225.606V14.112C225.606 15.152 226.134 15.712 227.19 15.792V18.216C224.262 18.216 222.798 16.752 222.798 13.824ZM229.71 14.208V9.192C229.71 6.664 230.974 5.4 233.502 5.4H237.582V0.24H240.39V18H233.502C230.974 18 229.71 16.736 229.71 14.208ZM232.518 14.448C232.518 15.184 232.886 15.552 233.622 15.552H237.582V7.848H233.622C232.886 7.848 232.518 8.216 232.518 8.952V14.448ZM243.916 3.216V0.36H246.868V3.216H243.916ZM243.988 18V5.4H246.796V18H243.988ZM250.386 18V5.4H257.298C259.81 5.4 261.066 6.664 261.066 9.192V18H258.258V8.952C258.258 8.216 257.89 7.848 257.154 7.848H253.194V18H250.386ZM264.302 14.208V9.192C264.302 6.664 265.566 5.4 268.094 5.4H275.006V19.008C275.006 21.536 273.742 22.8 271.214 22.8H266.63L265.358 21.864V20.352H271.094C271.83 20.352 272.198 19.984 272.198 19.248V18H268.094C265.566 18 264.302 16.736 264.302 14.208ZM267.11 14.448C267.11 15.184 267.478 15.552 268.214 15.552H272.198V7.848H268.214C267.478 7.848 267.11 8.216 267.11 8.952V14.448ZM284.54 18V1.44H290.9C295.22 1.44 297.38 3.608 297.38 7.944V11.496C297.38 15.832 295.22 18 290.9 18H284.54ZM287.468 15.336H291.068C293.324 15.336 294.452 14.208 294.452 11.952V7.488C294.452 5.232 293.324 4.104 291.068 4.104H287.468V15.336ZM300.634 18V6.96C301.21 5.92 302.314 5.4 303.946 5.4H306.466L307.738 6.336V7.848H304.594C304.05 7.848 303.666 7.984 303.442 8.256V18H300.634ZM309.96 14.208V9.192C309.96 6.664 311.224 5.4 313.752 5.4H316.872C319.384 5.4 320.64 6.664 320.64 9.192V12.744H312.768V14.448C312.768 15.184 313.136 15.552 313.872 15.552H320.16V17.064L318.888 18H313.752C311.224 18 309.96 16.736 309.96 14.208ZM312.768 10.56H317.832V8.952C317.832 8.216 317.464 7.848 316.728 7.848H313.872C313.136 7.848 312.768 8.216 312.768 8.952V10.56ZM327.17 18C324.642 18 323.378 16.752 323.378 14.256C323.378 11.76 324.642 10.512 327.17 10.512H330.866V8.952C330.866 8.216 330.498 7.848 329.762 7.848H324.674V6.336L325.922 5.4H329.906C332.418 5.4 333.674 6.664 333.674 9.192V18H327.17ZM326.186 14.448C326.186 15.184 326.554 15.552 327.29 15.552H330.866V12.696H327.29C326.554 12.696 326.186 13.056 326.186 13.776V14.448ZM337.175 18V5.4H351.527C354.039 5.4 355.295 6.664 355.295 9.192V18H352.487V8.952C352.487 8.216 352.119 7.848 351.383 7.848H347.639V18H344.831V7.848H339.983V18H337.175ZM358.352 17.064V15.552H363.896C364.632 15.552 365 15.16 365 14.376C365 13.56 364.696 13.096 364.088 12.984L361.4 12.552C359.368 12.2 358.352 11.048 358.352 9.096C358.352 6.632 359.616 5.4 362.144 5.4H365.96L367.232 6.336V7.848H362.264C361.512 7.848 361.136 8.24 361.136 9.024C361.136 9.808 361.456 10.256 362.096 10.368L364.784 10.8C366.8 11.136 367.808 12.296 367.808 14.28C367.808 16.76 366.536 18 363.992 18H359.624L358.352 17.064ZM388.726 22.8V0.24H391.27V22.8H388.726ZM411.443 4.104V1.44H424.811V4.104H419.603V18H416.651V4.104H411.443ZM426.376 14.208V5.4H429.184V14.448C429.184 15.184 429.552 15.552 430.288 15.552H434.248V5.4H437.056V18H430.168C427.64 18 426.376 16.736 426.376 14.208ZM440.556 18V6.96C441.132 5.92 442.236 5.4 443.868 5.4H446.388L447.66 6.336V7.848H444.516C443.972 7.848 443.588 7.984 443.364 8.256V18H440.556ZM450.073 18V5.4H456.985C459.497 5.4 460.753 6.664 460.753 9.192V18H457.945V8.952C457.945 8.216 457.577 7.848 456.841 7.848H452.881V18H450.073ZM464.181 3.216V0.36H467.133V3.216H464.181ZM464.253 18V5.4H467.061V18H464.253ZM470.652 18V5.4H477.564C480.076 5.4 481.332 6.664 481.332 9.192V18H478.524V8.952C478.524 8.216 478.156 7.848 477.42 7.848H473.46V18H470.652ZM484.567 14.208V9.192C484.567 6.664 485.831 5.4 488.359 5.4H495.271V19.008C495.271 21.536 494.007 22.8 491.479 22.8H486.895L485.623 21.864V20.352H491.359C492.095 20.352 492.463 19.984 492.463 19.248V18H488.359C485.831 18 484.567 16.736 484.567 14.208ZM487.375 14.448C487.375 15.184 487.743 15.552 488.479 15.552H492.463V7.848H488.479C487.743 7.848 487.375 8.216 487.375 8.952V14.448ZM504.806 18V1.44H507.734V18H504.806ZM511.381 14.208V9.192C511.381 6.664 512.645 5.4 515.173 5.4H519.253V0.24H522.061V18H515.173C512.645 18 511.381 16.736 511.381 14.208ZM514.189 14.448C514.189 15.184 514.557 15.552 515.293 15.552H519.253V7.848H515.293C514.557 7.848 514.189 8.216 514.189 8.952V14.448ZM525.467 14.208V9.192C525.467 6.664 526.731 5.4 529.259 5.4H532.379C534.891 5.4 536.147 6.664 536.147 9.192V12.744H528.275V14.448C528.275 15.184 528.643 15.552 529.379 15.552H535.667V17.064L534.395 18H529.259C526.731 18 525.467 16.736 525.467 14.208ZM528.275 10.56H533.339V8.952C533.339 8.216 532.971 7.848 532.235 7.848H529.379C528.643 7.848 528.275 8.216 528.275 8.952V10.56ZM542.678 18C540.15 18 538.886 16.752 538.886 14.256C538.886 11.76 540.15 10.512 542.678 10.512H546.374V8.952C546.374 8.216 546.006 7.848 545.27 7.848H540.182V6.336L541.43 5.4H545.414C547.926 5.4 549.182 6.664 549.182 9.192V18H542.678ZM541.694 14.448C541.694 15.184 542.062 15.552 542.798 15.552H546.374V12.696H542.798C542.062 12.696 541.694 13.056 541.694 13.776V14.448ZM552.227 17.064V15.552H557.771C558.507 15.552 558.875 15.16 558.875 14.376C558.875 13.56 558.571 13.096 557.963 12.984L555.275 12.552C553.243 12.2 552.227 11.048 552.227 9.096C552.227 6.632 553.491 5.4 556.019 5.4H559.835L561.107 6.336V7.848H556.139C555.387 7.848 555.011 8.24 555.011 9.024C555.011 9.808 555.331 10.256 555.971 10.368L558.659 10.8C560.675 11.136 561.683 12.296 561.683 14.28C561.683 16.76 560.411 18 557.867 18H553.499L552.227 17.064ZM570.494 3.216V0.36H573.446V3.216H570.494ZM570.566 18V5.4H573.374V18H570.566ZM576.964 18V5.4H583.876C586.388 5.4 587.644 6.664 587.644 9.192V18H584.836V8.952C584.836 8.216 584.468 7.848 583.732 7.848H579.772V18H576.964ZM591.048 14.208V1.44H593.856V5.4H598.152V7.848H593.856V14.448C593.856 15.184 594.224 15.552 594.96 15.552H598.392V17.064L597.12 18H594.84C592.312 18 591.048 16.736 591.048 14.208ZM600.866 14.208V9.192C600.866 6.664 602.13 5.4 604.658 5.4H608.018C610.53 5.4 611.786 6.664 611.786 9.192V14.208C611.786 16.736 610.53 18 608.018 18H604.658C602.13 18 600.866 16.736 600.866 14.208ZM603.674 14.448C603.674 15.184 604.042 15.552 604.778 15.552H607.874C608.61 15.552 608.978 15.184 608.978 14.448V8.952C608.978 8.216 608.61 7.848 607.874 7.848H604.778C604.042 7.848 603.674 8.216 603.674 8.952V14.448ZM621.196 18V1.44H627.556C631.876 1.44 634.036 3.608 634.036 7.944V11.496C634.036 15.832 631.876 18 627.556 18H621.196ZM624.124 15.336H627.724C629.98 15.336 631.108 14.208 631.108 11.952V7.488C631.108 5.232 629.98 4.104 627.724 4.104H624.124V15.336ZM637.314 3.216V0.36H640.266V3.216H637.314ZM637.386 18V5.4H640.194V18H637.386ZM643.52 14.208V9.192C643.52 6.664 644.784 5.4 647.312 5.4H654.224V19.008C654.224 21.536 652.96 22.8 650.432 22.8H645.848L644.576 21.864V20.352H650.312C651.048 20.352 651.416 19.984 651.416 19.248V18H647.312C644.784 18 643.52 16.736 643.52 14.208ZM646.328 14.448C646.328 15.184 646.696 15.552 647.432 15.552H651.416V7.848H647.432C646.696 7.848 646.328 8.216 646.328 8.952V14.448ZM657.681 3.216V0.36H660.633V3.216H657.681ZM657.753 18V5.4H660.561V18H657.753ZM664.056 14.208V1.44H666.864V5.4H671.16V7.848H666.864V14.448C666.864 15.184 667.232 15.552 667.968 15.552H671.4V17.064L670.128 18H667.848C665.32 18 664.056 16.736 664.056 14.208ZM677.186 18C674.658 18 673.394 16.752 673.394 14.256C673.394 11.76 674.658 10.512 677.186 10.512H680.882V8.952C680.882 8.216 680.514 7.848 679.778 7.848H674.69V6.336L675.938 5.4H679.922C682.434 5.4 683.69 6.664 683.69 9.192V18H677.186ZM676.202 14.448C676.202 15.184 676.57 15.552 677.306 15.552H680.882V12.696H677.306C676.57 12.696 676.202 13.056 676.202 13.776V14.448ZM687.095 13.824V0.24H689.903V14.112C689.903 15.152 690.431 15.712 691.487 15.792V18.216C688.559 18.216 687.095 16.752 687.095 13.824ZM700.204 18V1.44H708.172C710.78 1.44 712.084 2.744 712.084 5.352V8.064C712.084 10.08 711.284 11.304 709.684 11.736L712.564 17.376L712.204 18H709.708L706.636 11.952H703.132V18H700.204ZM703.132 9.288H708.1C708.804 9.288 709.156 8.936 709.156 8.232V5.136C709.156 4.448 708.804 4.104 708.1 4.104H703.132V9.288ZM715.241 14.208V9.192C715.241 6.664 716.505 5.4 719.033 5.4H722.153C724.665 5.4 725.921 6.664 725.921 9.192V12.744H718.049V14.448C718.049 15.184 718.417 15.552 719.153 15.552H725.441V17.064L724.169 18H719.033C716.505 18 715.241 16.736 715.241 14.208ZM718.049 10.56H723.113V8.952C723.113 8.216 722.745 7.848 722.009 7.848H719.153C718.417 7.848 718.049 8.216 718.049 8.952V10.56ZM732.451 18C729.923 18 728.659 16.752 728.659 14.256C728.659 11.76 729.923 10.512 732.451 10.512H736.147V8.952C736.147 8.216 735.779 7.848 735.043 7.848H729.955V6.336L731.203 5.4H735.187C737.699 5.4 738.955 6.664 738.955 9.192V18H732.451ZM731.467 14.448C731.467 15.184 731.835 15.552 732.571 15.552H736.147V12.696H732.571C731.835 12.696 731.467 13.056 731.467 13.776V14.448ZM742.36 13.824V0.24H745.168V14.112C745.168 15.152 745.696 15.712 746.752 15.792V18.216C743.824 18.216 742.36 16.752 742.36 13.824ZM749.392 3.216V0.36H752.344V3.216H749.392ZM749.464 18V5.4H752.272V18H749.464ZM755.767 14.208V1.44H758.575V5.4H762.871V7.848H758.575V14.448C758.575 15.184 758.943 15.552 759.679 15.552H763.111V17.064L761.839 18H759.559C757.031 18 755.767 16.736 755.767 14.208ZM765.705 3.216V0.36H768.657V3.216H765.705ZM765.777 18V5.4H768.585V18H765.777ZM771.983 14.208V9.192C771.983 6.664 773.247 5.4 775.775 5.4H778.895C781.407 5.4 782.663 6.664 782.663 9.192V12.744H774.791V14.448C774.791 15.184 775.159 15.552 775.895 15.552H782.183V17.064L780.911 18H775.775C773.247 18 771.983 16.736 771.983 14.208ZM774.791 10.56H779.855V8.952C779.855 8.216 779.487 7.848 778.751 7.848H775.895C775.159 7.848 774.791 8.216 774.791 8.952V10.56ZM785.617 17.064V15.552H791.161C791.897 15.552 792.265 15.16 792.265 14.376C792.265 13.56 791.961 13.096 791.353 12.984L788.665 12.552C786.633 12.2 785.617 11.048 785.617 9.096C785.617 6.632 786.881 5.4 789.409 5.4H793.225L794.497 6.336V7.848H789.529C788.777 7.848 788.401 8.24 788.401 9.024C788.401 9.808 788.721 10.256 789.361 10.368L792.049 10.8C794.065 11.136 795.073 12.296 795.073 14.28C795.073 16.76 793.801 18 791.257 18H786.889L785.617 17.064ZM802.636 18.456L809.38 0.119998L811.732 0.983999L805.012 19.32L802.636 18.456ZM813.603 13.872L821.979 9.96L813.603 6.048L814.611 3.888L824.547 8.64V11.28L814.611 16.032L813.603 13.872Z" fill="#E87B7B"/>
</svg>
